<svg version="1.2" xmlns="http://www.w3.org/2000/svg" viewBox="0 0 873 1543" width="873" height="1543">
	<title>Localiza_logo_2022-svg</title>
	<style>
		.s0 { fill: #78de1f } 
		.s1 { fill: #01602a } 
	</style>
	<path id="Layer" class="s0" d="m829.9 3.5l-360.1 147.9c-9.4 3.6-17.5 10.1-23.1 18.6-5.7 8.4-8.6 18.3-8.4 28.5v403.6l284.9-114.5c44.4-17 82.6-47.2 109.2-86.7 26.6-39.5 40.4-86.2 39.6-133.8v-235c0.4-5.1-0.6-10.3-2.8-15-2.2-4.6-5.7-8.6-9.9-11.5-4.3-3-9.3-4.7-14.4-5.1-5.2-0.3-10.3 0.7-15 3z"/>
	<path id="Layer" class="s1" d="m0.8 814.3v217.4c0 296.3 214.5 510.8 510.9 510.8h321c5.3 0.2 10.5-0.7 15.4-2.6 4.9-1.9 9.3-4.9 13-8.6 3.7-3.7 6.6-8.1 8.6-13 1.9-4.9 2.8-10.1 2.6-15.4v-356.9c0.2-5.2-0.7-10.5-2.6-15.4-2-4.9-4.9-9.3-8.6-13-3.7-3.8-8.1-6.7-13-8.6-4.9-2-10.1-2.9-15.4-2.7h-328.3c-8.8 0.3-17.5-1.2-25.7-4.4-8.2-3.2-15.6-8.1-21.8-14.3-6.2-6.2-11-13.6-14.3-21.8-3.2-8.2-4.7-16.9-4.3-25.7v-438.2l-405.7 165.2c-9.6 3.6-17.7 10.1-23.4 18.5-5.7 8.5-8.6 18.5-8.4 28.7z"/>
</svg>