<?xml version="1.0" encoding="UTF-8" standalone="no"?>
<svg
   xmlns:dc="http://purl.org/dc/elements/1.1/"
   xmlns:cc="http://creativecommons.org/ns#"
   xmlns:rdf="http://www.w3.org/1999/02/22-rdf-syntax-ns#"
   xmlns:svg="http://www.w3.org/2000/svg"
   xmlns="http://www.w3.org/2000/svg"
   xmlns:sodipodi="http://sodipodi.sourceforge.net/DTD/sodipodi-0.dtd"
   xmlns:inkscape="http://www.inkscape.org/namespaces/inkscape"
   viewBox="0 0 700 700"
   version="1.1"
   id="svg24"
   sodipodi:docname="localiza-logo.svg"
   width="700"
   height="700"
   style="fill:none"
   inkscape:version="0.92.0 r15299"
   inkscape:export-filename="C:\Users\suitedoalex\sites\localiza-logo-0.png"
   inkscape:export-xdpi="561.73712"
   inkscape:export-ydpi="561.73712">
  <metadata
     id="metadata30">
    <rdf:RDF>
      <cc:Work
         rdf:about="">
        <dc:format>image/svg+xml</dc:format>
        <dc:type
           rdf:resource="http://purl.org/dc/dcmitype/StillImage" />
        <dc:title></dc:title>
      </cc:Work>
    </rdf:RDF>
  </metadata>
  <defs
     id="defs28" />
  <sodipodi:namedview
     pagecolor="#ffffff"
     bordercolor="#666666"
     borderopacity="1"
     objecttolerance="10"
     gridtolerance="10"
     guidetolerance="10"
     inkscape:pageopacity="0"
     inkscape:pageshadow="2"
     inkscape:window-width="1920"
     inkscape:window-height="1017"
     id="namedview26"
     showgrid="false"
     inkscape:zoom="0.90783846"
     inkscape:cx="293.98653"
     inkscape:cy="369.88268"
     inkscape:window-x="-8"
     inkscape:window-y="-8"
     inkscape:window-maximized="1"
     inkscape:current-layer="svg24" />
  <path
     d="M 116.84805,291.24927 89.28273,302.5631 c -0.723068,0.28115 -1.3424,0.77767 -1.774512,1.42207 -0.432074,0.64442 -0.656154,1.40582 -0.641942,2.18155 v 30.87551 l 21.810584,-8.75768 c 3.40252,-1.29909 6.32144,-3.61541 8.35978,-6.63351 2.03834,-3.01807 3.09662,-6.59116 3.03077,-10.23245 V 293.4422 c 0.0316,-0.39451 -0.0416,-0.79011 -0.21233,-1.14699 -0.17078,-0.35688 -0.43312,-0.66218 -0.7603,-0.88493 -0.32719,-0.22274 -0.70684,-0.35489 -1.10183,-0.38311 -0.39451,-0.0297 -0.7895,0.0494 -1.1449,0.22225 z"
     id="path2"
     style="fill:#00652a;fill-opacity:1;stroke-width:4.94983149"
     inkscape:connector-curvature="0"
     inkscape:export-filename="C:\Users\suitedoalex\sites\localiza-logo-3.png"
     inkscape:export-xdpi="64.728615"
     inkscape:export-ydpi="64.728615" />
  <path
     d="m 53.378146,353.27356 v 16.62847 c 0,22.66282 16.41898,39.07496 39.109458,39.07496 h 24.576256 c 0.40143,0.0149 0.80186,-0.0555 1.17557,-0.20293 0.37422,-0.14751 0.71379,-0.37025 0.99791,-0.65486 0.28412,-0.28413 0.50685,-0.62369 0.65435,-0.9974 0.14751,-0.37422 0.21681,-0.77416 0.20295,-1.17608 v -27.29981 c 0.014,-0.40193 -0.0555,-0.80237 -0.20295,-1.17657 -0.1475,-0.37421 -0.36974,-0.71426 -0.65386,-0.99937 -0.28412,-0.28462 -0.62369,-0.50786 -0.99789,-0.65635 -0.37372,-0.14849 -0.77416,-0.21829 -1.17608,-0.20542 H 91.928862 c -0.671494,0.0247 -1.340763,-0.0901 -1.966173,-0.3356 -0.625354,-0.246 -1.1933,-0.61824 -1.668437,-1.09342 -0.475136,-0.47468 -0.847209,-1.04292 -1.09302,-1.66808 -0.24582,-0.62567 -0.360057,-1.29489 -0.335647,-1.96608 v -33.52263 l -31.057078,12.64078 c -0.72973,0.27521 -1.35574,0.77069 -1.791225,1.41763 -0.435486,0.64694 -0.658853,1.41318 -0.639136,2.19276 z"
     id="path4"
     style="fill:#78de1f;fill-opacity:1;stroke-width:4.94983149"
     inkscape:connector-curvature="0"
     inkscape:export-filename="C:\Users\suitedoalex\sites\localiza-logo-3.png"
     inkscape:export-xdpi="64.728615"
     inkscape:export-ydpi="64.728615" />
  <path
     d="m 254.58255,318.45082 c -21.00015,0 -37.17471,16.32127 -37.17471,36.89574 0,20.57447 16.17456,36.88863 37.17471,36.88863 21.00064,0 37.17521,-16.31416 37.17521,-36.88863 0,-20.57447 -16.17457,-36.89574 -37.17521,-36.89574 z m 0,59.31353 c -12.62652,0 -21.42633,-9.77741 -21.42633,-22.41779 0,-12.64087 8.79981,-22.41823 21.42633,-22.41823 12.48743,0 21.27982,9.77736 21.27982,22.41823 0,12.64038 -8.79239,22.41779 -21.27982,22.41779 z"
     id="path6"
     style="fill:#00652a;fill-opacity:1;stroke-width:4.94983149"
     inkscape:connector-curvature="0"
     inkscape:export-filename="C:\Users\suitedoalex\sites\localiza-logo-3.png"
     inkscape:export-xdpi="64.728615"
     inkscape:export-ydpi="64.728615" />
  <path
     d="m 366.24529,372.08689 -11.63506,-6.24371 c -0.13662,-0.0802 -0.28908,-0.1292 -0.44648,-0.14355 -0.1579,-0.0149 -0.31678,0.006 -0.46528,0.0598 -0.14899,0.0544 -0.28413,0.14057 -0.3955,0.25244 -0.11136,0.11236 -0.197,0.24798 -0.25046,0.39697 -1.77995,3.45548 -4.48653,6.34816 -7.81677,8.35333 -3.32975,2.00568 -7.15251,3.04514 -11.03961,3.00208 -12.63346,0 -21.57285,-9.77741 -21.57285,-22.41779 0,-12.64087 8.93939,-22.41823 21.57285,-22.41823 3.8876,-0.0494 7.71134,0.98808 11.04208,2.99282 3.33124,2.00468 6.03731,4.89815 7.8143,8.35611 0.0526,0.14948 0.13712,0.28609 0.24848,0.39896 0.11187,0.11284 0.247,0.19947 0.39599,0.25391 0.149,0.054 0.30838,0.0743 0.46627,0.0594 0.1579,-0.0149 0.31085,-0.0653 0.44698,-0.14702 l 11.63506,-6.24332 c 0.14108,-0.0624 0.26731,-0.15591 0.36777,-0.27273 0.10098,-0.11731 0.17475,-0.25541 0.21532,-0.40441 0.041,-0.14898 0.048,-0.3054 0.0208,-0.45785 -0.0273,-0.15246 -0.088,-0.2965 -0.1782,-0.42223 -6.24322,-11.3557 -18.15796,-18.59097 -32.48871,-18.59097 -21.28677,0 -37.46133,15.89526 -37.46133,36.89575 0,21.00016 16.17456,36.88862 37.46133,36.88862 14.33075,0 26.392,-7.23517 32.63572,-18.73065 0.10791,-0.26433 0.1084,-0.56033 9.5e-4,-0.82515 -0.10692,-0.26481 -0.31283,-0.47765 -0.57419,-0.59249 z"
     id="path8"
     style="fill:#00652a;fill-opacity:1;stroke-width:4.94983149"
     inkscape:connector-curvature="0"
     inkscape:export-filename="C:\Users\suitedoalex\sites\localiza-logo-3.png"
     inkscape:export-xdpi="64.728615"
     inkscape:export-ydpi="64.728615" />
  <path
     d="m 215.56104,376.62738 h -36.31592 v -55.61943 c -0.0208,-0.29502 -0.1475,-0.57239 -0.35687,-0.78147 -0.20889,-0.20889 -0.48658,-0.33561 -0.78158,-0.35689 h -13.33881 c -0.29452,0.0198 -0.57071,0.148 -0.7786,0.35737 -0.2084,0.20938 -0.33363,0.48658 -0.35293,0.78095 v 56.75738 c 0,8.08753 4.96567,13.0532 13.0527,13.0532 h 38.87201 c 0.29502,-0.0198 0.57222,-0.14652 0.7806,-0.3559 0.20789,-0.20986 0.33312,-0.48805 0.35093,-0.78257 v -11.91473 c -0.0178,-0.29451 -0.14304,-0.5727 -0.35093,-0.78258 -0.20838,-0.20936 -0.48558,-0.33559 -0.7806,-0.35539 z"
     id="path10"
     style="fill:#00652a;fill-opacity:1;stroke-width:4.94983149"
     inkscape:connector-curvature="0"
     inkscape:export-filename="C:\Users\suitedoalex\sites\localiza-logo-3.png"
     inkscape:export-xdpi="64.728615"
     inkscape:export-ydpi="64.728615" />
  <path
     d="m 568.8711,376.6254 h -37.23016 l 36.66587,-43.55803 c 0.37124,-0.43608 0.56924,-0.99175 0.56429,-1.56435 v -10.47577 c -0.0198,-0.2955 -0.14355,-0.57369 -0.3564,-0.78307 -0.20789,-0.20937 -0.48507,-0.3356 -0.78206,-0.35538 h -54.4729 c -0.2955,0.0198 -0.57418,0.14601 -0.78355,0.35538 -0.20938,0.20938 -0.33561,0.48757 -0.3549,0.78307 v 11.92143 c 0.0198,0.29451 0.14601,0.57214 0.35587,0.78035 0.20939,0.20838 0.48757,0.3331 0.78258,0.35093 h 35.43089 l -36.56934,43.70508 c -0.36778,0.43509 -0.56873,0.98749 -0.56577,1.55722 v 10.33573 c 0.0178,0.29501 0.14256,0.5732 0.35094,0.78258 0.20839,0.20986 0.48557,0.33609 0.78009,0.35589 H 568.881 c 0.29203,-0.0198 0.56923,-0.14603 0.77712,-0.35589 0.20789,-0.20938 0.33165,-0.48757 0.35143,-0.78258 v -11.91423 c -0.0198,-0.296 -0.14354,-0.57518 -0.35143,-0.78455 -0.21285,-0.20988 -0.49003,-0.3356 -0.78702,-0.35392 z"
     id="path12"
     style="fill:#00652a;fill-opacity:1;stroke-width:4.94983149"
     inkscape:connector-curvature="0"
     inkscape:export-filename="C:\Users\suitedoalex\sites\localiza-logo-3.png"
     inkscape:export-xdpi="64.728615"
     inkscape:export-ydpi="64.728615" />
  <path
     d="m 499.91351,294.47512 h -13.3388 c -0.29402,0.0198 -0.57022,0.14504 -0.77861,0.35293 -0.20789,0.20789 -0.33361,0.48457 -0.35292,0.77816 v 13.62545 c 0.0192,0.29352 0.14503,0.57012 0.35292,0.77821 0.20839,0.20789 0.48459,0.33362 0.77861,0.35341 h 5.10476 c 1.24092,0.0396 2.4764,-0.17521 3.6307,-0.63184 1.1543,-0.45638 2.20268,-1.14499 3.08028,-2.0227 0.8776,-0.8777 1.56613,-1.92608 2.0225,-3.08032 0.45686,-1.15421 0.67169,-2.38984 0.6321,-3.63045 v -5.39156 c -0.0198,-0.29353 -0.14504,-0.57008 -0.35344,-0.77817 -0.20789,-0.20789 -0.48457,-0.33361 -0.7781,-0.35292 z"
     id="path14"
     style="fill:#00652a;fill-opacity:1;stroke-width:4.94983149"
     inkscape:connector-curvature="0"
     inkscape:export-filename="C:\Users\suitedoalex\sites\localiza-logo-3.png"
     inkscape:export-xdpi="64.728615"
     inkscape:export-ydpi="64.728615" />
  <path
     d="M 645.48459,319.86855 H 632.1448 c -0.29205,0.0198 -0.56924,0.148 -0.77713,0.35738 -0.20789,0.20937 -0.33164,0.48657 -0.35145,0.78094 v 8.4295 c -3.96976,-5.71977 -12.43892,-10.98559 -22.70487,-10.98559 -19.43799,0 -34.22313,16.60059 -34.22313,36.89573 0,20.29481 14.76039,36.88862 34.22313,36.88862 10.26595,0 18.73511,-5.25919 22.70487,-10.97873 v 8.42264 c 0.0198,0.29451 0.14356,0.5727 0.35145,0.78257 0.20789,0.20937 0.48508,0.3356 0.77713,0.35589 h 13.33979 c 0.29698,-0.0198 0.57418,-0.14603 0.78702,-0.35539 0.20789,-0.20938 0.33164,-0.48757 0.35145,-0.78307 v -68.67217 c -0.0198,-0.29502 -0.14851,-0.5724 -0.3564,-0.78148 -0.20789,-0.2089 -0.48509,-0.33561 -0.78207,-0.35689 z m -34.33698,58.17547 c -12.47853,0 -21.14073,-9.93134 -21.14073,-22.69746 0,-12.7666 8.6622,-22.70458 21.14073,-22.70458 12.47852,0 21.14567,9.93105 21.14567,22.70458 0,12.77353 -8.65725,22.69746 -21.14567,22.69746 z"
     id="path16"
     style="fill:#00652a;fill-opacity:1;stroke-width:4.94983149"
     inkscape:connector-curvature="0"
     inkscape:export-filename="C:\Users\suitedoalex\sites\localiza-logo-3.png"
     inkscape:export-xdpi="64.728615"
     inkscape:export-ydpi="64.728615" />
  <path
     d="m 442.19006,319.86855 h -13.3388 c -0.29452,0.0198 -0.57072,0.148 -0.7791,0.35738 -0.2079,0.20937 -0.33313,0.48657 -0.35243,0.78094 v 8.4295 c -3.97372,-5.71977 -12.44535,-10.98559 -22.70438,-10.98559 -19.44294,0 -34.22065,16.60059 -34.22065,36.89573 0,20.29481 14.75692,36.88862 34.22065,36.88862 10.25903,0 18.73066,-5.25919 22.70438,-10.97873 v 8.42264 c 0.0178,0.29451 0.14256,0.5727 0.35095,0.78257 0.20837,0.20937 0.48556,0.3356 0.78058,0.35589 h 13.3388 c 0.29501,-0.0198 0.5722,-0.14652 0.78059,-0.35589 0.20839,-0.20987 0.33313,-0.48806 0.35095,-0.78257 v -68.67217 c -0.0193,-0.29452 -0.14454,-0.57172 -0.35242,-0.78094 -0.2084,-0.20938 -0.4846,-0.3361 -0.77912,-0.35738 z m -34.33944,58.17547 c -12.48695,0 -21.13975,-9.93134 -21.13975,-22.69746 0,-12.7666 8.6528,-22.70458 21.13975,-22.70458 12.48742,0 21.14023,9.93105 21.14023,22.70458 0,12.77353 -8.68102,22.69746 -21.16795,22.69746 z"
     id="path18"
     style="fill:#00652a;fill-opacity:1;stroke-width:4.94983149"
     inkscape:connector-curvature="0"
     inkscape:export-filename="C:\Users\suitedoalex\sites\localiza-logo-3.png"
     inkscape:export-xdpi="64.728615"
     inkscape:export-ydpi="64.728615" />
  <path
     d="m 499.91351,319.86959 h -13.33187 c -0.62913,0 -1.13846,0.50962 -1.13846,1.13836 v 68.66519 c 0,0.62863 0.50933,1.13798 1.13846,1.13798 h 13.33187 c 0.62863,0 1.13846,-0.50935 1.13846,-1.13798 v -68.66519 c 0,-0.62874 -0.50983,-1.13836 -1.13846,-1.13836 z"
     id="path20"
     style="fill:#00652a;fill-opacity:1;stroke-width:4.94983149"
     inkscape:connector-curvature="0"
     inkscape:export-filename="C:\Users\suitedoalex\sites\localiza-logo-3.png"
     inkscape:export-xdpi="64.728615"
     inkscape:export-ydpi="64.728615" />
  <path
     d="m 471.09906,294.47512 h -13.33188 c -0.62862,0 -1.13845,0.50964 -1.13845,1.13832 v 94.06516 c 0,0.62863 0.50983,1.13846 1.13845,1.13846 h 13.33188 c 0.62863,0 1.13846,-0.50983 1.13846,-1.13846 v -94.06516 c 0,-0.62868 -0.50983,-1.13832 -1.13846,-1.13832 z"
     id="path22"
     style="fill:#00652a;fill-opacity:1;stroke-width:4.94983149"
     inkscape:connector-curvature="0"
     inkscape:export-filename="C:\Users\suitedoalex\sites\localiza-logo-3.png"
     inkscape:export-xdpi="64.728615"
     inkscape:export-ydpi="64.728615" />
</svg>
